# xmcd CD database file
#
# Track frame offsets:
#	150
#	12070
#	25165
#	38555
#	51155
#	63215
#	74932
#	85825
#	99010
#	113867
#	126167
#	138732
#	149155
#	163310
#	175647
#
# Disc length: 2524 seconds
#
# Revision: 0
# Processed by: cddbd v1.5.1PL0 Copyright (c) Steve Scherf et al.
# Submitted via: cdripper 1.0.10
#
DISCID=d209da0f
DTITLE=Sonny Boy Williamson II - Goin' in Your Direction
DYEAR=1992
DGENRE=Blues
TTITLE0=Goin' in Your Direction
TTITLE1=From the Bottom
TTITLE2=No Nights by Myself
TTITLE3=Boppin' With Sonny
TTITLE4=Empty Bedroom
TTITLE5=Red Hot Kisses
TTITLE6=Gettin' Out of Town
TTITLE7=Cat Hop
TTITLE8=She Brought Life Back to the Dead
TTITLE9=I'm Not Beggin' Nobody [alternate take]
TTITLE10=She's Crazy [alternate take]
TTITLE11=Sonny's Rhythm, No. 2 [alternate take]
TTITLE12=Make a Little Love With Me
TTITLE13=Gonna Find My Baby
TTITLE14=Catfish Blues
EXTD=YEAR: 1992
EXTT0=
EXTT1=
EXTT2=
EXTT3=
EXTT4=
EXTT5=
EXTT6=
EXTT7=
EXTT8=
EXTT9=
EXTT10=
EXTT11=
EXTT12=
EXTT13=
EXTT14=
PLAYORDER=
